<svg width="276" height="59" viewBox="0 0 276 59" fill="none" xmlns="http://www.w3.org/2000/svg">
<path d="M234.1 11.2209C234.014 11.1335 233.928 11.0425 233.841 10.9527C233.756 10.9939 233.59 11.0431 233.601 11.0768C233.638 11.1733 233.747 11.2627 233.827 11.3558C233.912 11.3134 233.998 11.271 234.1 11.2209ZM155.135 8.58073C155.05 8.49337 154.963 8.40234 154.876 8.31251C154.791 8.35373 154.623 8.40287 154.636 8.43665C154.672 8.53309 154.782 8.6225 154.862 8.71566C154.948 8.6733 155.031 8.63084 155.135 8.58073V8.58073ZM52.2266 4.6781C52.1463 4.63017 52.046 4.53871 51.9841 4.54379C51.8056 4.55925 51.6445 4.61339 51.4752 4.65297C51.5569 4.70095 51.6572 4.7924 51.7191 4.78733C51.8961 4.77182 52.0587 4.71773 52.2266 4.6781ZM64.6576 4.4889C64.5716 4.53007 64.4049 4.57927 64.4166 4.613C64.4536 4.70948 64.5626 4.79885 64.6428 4.89201C64.7274 4.8496 64.8942 4.80041 64.8824 4.76668C64.8454 4.6702 64.7364 4.58083 64.6576 4.4889ZM139.011 6.62841C138.911 6.67981 138.825 6.72098 138.74 6.76339C138.906 6.81419 139.065 6.87903 139.24 6.90633C139.302 6.91553 139.408 6.83097 139.491 6.78851C139.331 6.73553 139.169 6.6813 139.011 6.62841ZM206.165 8.75815C206.268 8.70685 206.353 8.66563 206.438 8.62322C206.273 8.57365 206.113 8.50758 205.937 8.48028C205.876 8.47108 205.771 8.55687 205.686 8.5981C205.848 8.65232 206.01 8.70536 206.165 8.75815ZM204.071 8.60243C203.988 8.51512 203.899 8.42523 203.813 8.33425C203.727 8.37543 203.56 8.42462 203.573 8.4584C203.609 8.55484 203.718 8.6442 203.8 8.73742C203.884 8.695 203.969 8.65259 204.071 8.60243ZM92.1267 4.8013C92.045 4.75452 91.9447 4.66187 91.8828 4.66694C91.7057 4.68245 91.5431 4.73774 91.3753 4.77618C91.4555 4.8241 91.5558 4.91675 91.6177 4.91049C91.7962 4.89621 91.9574 4.84088 92.1267 4.8013ZM73.8194 3.92847C73.9201 3.87945 74.0062 3.83708 74.0909 3.79467C73.9246 3.74387 73.766 3.67904 73.5903 3.65173C73.5289 3.64254 73.4227 3.72709 73.3381 3.7695C73.4999 3.82373 73.6618 3.87676 73.8194 3.92847ZM270.238 33.8217C270.155 33.7332 270.066 33.6421 269.98 33.5523C269.894 33.5935 269.727 33.6427 269.74 33.6765C269.776 33.7729 269.885 33.8635 269.966 33.9555C270.05 33.913 270.136 33.8719 270.238 33.8217ZM254.376 53.1529C254.478 53.1027 254.565 53.0603 254.648 53.0179C254.483 52.9683 254.324 52.9023 254.149 52.8762C254.087 52.8658 253.981 52.9515 253.896 52.9928C254.058 53.047 254.22 53.1012 254.376 53.1529V53.1529ZM15.3419 19.0428C15.1826 19.084 15.0175 19.1261 14.8524 19.1693C14.9355 19.2174 15.0329 19.3087 15.0963 19.3037C15.2734 19.2882 15.436 19.2341 15.6038 19.1945C15.5221 19.1477 15.4405 19.0997 15.3419 19.0428ZM15.7431 18.3336C15.8262 18.4221 15.9137 18.5119 16.0011 18.6029C16.0858 18.5605 16.2525 18.5113 16.2407 18.4776C16.2037 18.3823 16.0947 18.2917 16.0145 18.1998C15.9299 18.241 15.8438 18.2834 15.7431 18.3336V18.3336ZM14.9042 14.3861C14.8181 14.2987 14.7322 14.2077 14.6447 14.1179C14.5601 14.1591 14.3919 14.2082 14.4052 14.242C14.4421 14.3385 14.5511 14.4279 14.6313 14.521C14.716 14.4786 14.8021 14.4362 14.9042 14.3861ZM84.853 11.6802C84.6952 11.7214 84.5287 11.7646 84.3636 11.8067C84.4467 11.8548 84.5441 11.9473 84.6075 11.9411C84.7845 11.9268 84.9472 11.8715 85.115 11.8319C85.0347 11.7851 84.9516 11.7371 84.853 11.6802ZM26.5098 8.25799C26.4281 8.21121 26.3278 8.11856 26.2659 8.12364C26.0888 8.13915 25.9262 8.19443 25.7584 8.23287C25.8386 8.28079 25.9389 8.37344 26.0008 8.36718C26.1793 8.35291 26.3405 8.29758 26.5098 8.25799ZM95.81 11.5287C95.9678 11.5304 96.1271 11.5321 96.2864 11.5339C96.3354 11.3557 96.4044 11.1795 96.4234 10.9991C96.4291 10.9553 96.2459 10.8551 96.1896 10.8627C96.0109 10.8841 95.7178 10.9351 95.7102 10.9896C95.6842 11.1661 95.7686 11.3487 95.81 11.5287V11.5287ZM84.3891 11.0004C84.8827 11.3074 85.3832 11.3241 85.8976 11.0508C85.4025 10.7449 84.902 10.7282 84.3891 11.0004ZM69.4168 11.5856C69.4211 11.6703 69.4254 11.7562 69.4297 11.842C69.7631 11.877 70.0946 11.9214 70.4314 11.9398C70.5131 11.9437 70.6913 11.8509 70.6766 11.8194C70.6281 11.7225 70.52 11.563 70.4155 11.5559C70.0874 11.5342 69.7503 11.5718 69.4168 11.5856V11.5856ZM4.19268 33.5275C3.71057 33.865 3.48409 34.1134 4.37703 34.3278C4.5934 34.0814 4.75568 33.8642 4.19268 33.5275ZM15.8564 23.4593C16.3371 23.1218 16.5635 22.8733 15.6706 22.659C15.4542 22.9053 15.292 23.1225 15.8564 23.4593ZM217.363 8.38249C216.813 8.63438 216.805 8.90315 217.336 9.19119C217.884 8.93925 217.893 8.67048 217.363 8.38249V8.38249ZM11.0313 32.1607C11.5809 31.9089 11.5899 31.6401 11.0583 31.352C10.5101 31.604 10.5012 31.8727 11.0313 32.1607ZM19.22 11.8313C18.7393 12.1688 18.5128 12.4172 19.4058 12.6316C19.6222 12.3841 19.783 12.168 19.22 11.8313ZM136.648 6.03268C136.808 6.03444 136.967 6.03619 137.125 6.03789C137.175 5.8598 137.244 5.68233 137.263 5.50318C137.267 5.45928 137.084 5.35909 137.028 5.36674C136.849 5.38814 136.556 5.43907 136.548 5.49358C136.523 5.67011 136.607 5.85271 136.648 6.03268V6.03268ZM145.126 7.1793C145.675 6.92741 145.684 6.65983 145.153 6.37179C144.604 6.62373 144.596 6.89131 145.126 7.1793V7.1793ZM10.3457 30.1198C10.8953 29.8679 10.9043 29.5991 10.3726 29.3122C9.8245 29.563 9.81554 29.8318 10.3457 30.1198ZM124.4 7.89838C123.906 7.59256 123.404 7.57578 122.891 7.84794C123.385 8.15495 123.887 8.17173 124.4 7.89838ZM70.6731 4.68883C70.1235 4.94072 70.1146 5.2095 70.6462 5.49635C71.1958 5.24565 71.2047 4.97687 70.6731 4.68883ZM8.72034 33.7027C9.36493 33.3147 9.37837 32.9115 8.76107 32.4813C8.11935 32.8694 8.10591 33.2726 8.72034 33.7027ZM130.934 5.16179C130.667 5.76482 129.875 5.77527 129.852 6.14237C130.293 6.33929 130.707 6.36742 131.251 6.11177C131.191 5.92999 131.116 5.70486 130.934 5.16179V5.16179ZM56.5893 7.38969C55.9303 7.43433 55.5922 7.45755 55.0986 7.49225C55.1868 7.77379 55.2582 8.0012 55.3373 8.25625C55.8438 8.2208 56.1805 8.19753 56.5632 8.17104L56.5893 7.38969ZM11.299 33.6055C11.8521 33.7217 11.9466 34.1153 12.7011 34.1775C12.7731 33.9977 12.8407 33.8226 12.9252 33.6123C12.3721 33.4962 12.2776 33.1013 11.5246 33.038C11.4526 33.219 11.3835 33.3941 11.299 33.6055V33.6055ZM142.282 5.50549C142.74 5.99706 142.224 6.33221 142.75 6.62957C143.36 6.58092 143.618 6.2919 144.078 6.09417C144.016 5.9278 143.949 5.74815 143.879 5.5589L142.282 5.50549ZM32.6061 9.60717C32.7723 9.79013 32.9398 9.9755 33.1059 10.1596C33.0827 10.1672 31.8475 10.5307 31.7837 10.55C32.371 10.7613 32.9919 10.6523 33.6883 10.7327C33.8869 10.331 35.5183 10.2272 34.3673 9.52795C33.7829 9.57508 33.154 9.36237 32.6061 9.60717V9.60717ZM77.0573 5.15469C78.0534 5.42016 79.0555 5.45962 80.1323 5.23964C80.0552 5.01204 79.9925 4.82779 79.9324 4.64957C78.8926 4.5767 77.9438 4.39973 77.073 4.68612L77.0573 5.15469ZM39.2892 8.17093C39.0934 7.97151 39.6432 7.62557 38.9678 7.26009C38.5591 7.46193 38.1896 7.69365 37.7335 7.85579C37.3223 8.00278 36.816 8.07514 36.5267 8.14048C37.0719 8.53731 37.585 8.90807 38.1162 9.29373C38.5388 8.88877 38.8711 8.56889 39.2892 8.17093V8.17093ZM112.575 5.57546C112.82 5.62414 113.033 5.69555 113.25 5.70517C114.346 5.75255 115.445 5.7857 116.54 5.81401C116.629 5.81579 116.72 5.73785 116.817 5.69468C116.488 5.3253 116.182 4.94717 115.799 4.59148C115.735 4.53219 115.337 4.5689 114.956 4.55615C114.533 4.79561 114.046 5.07339 113.557 5.34994C113.209 5.41212 112.505 5.12903 112.575 5.57546V5.57546ZM50.2876 6.43011C50.6448 6.17893 51.3044 6.07121 51.4411 5.7186C51.2513 5.46938 51.2513 5.46938 49.4476 5.53289C49.2758 5.4319 49.1025 5.33205 48.9884 5.26633C48.3745 5.59584 47.762 5.92658 47.1554 6.25276C47.1215 6.23377 47.2062 6.31995 47.298 6.3242C48.2928 6.36699 49.2895 6.39674 50.2876 6.43011V6.43011ZM57.5778 4.90821C56.7165 4.34959 55.5765 4.78296 54.7238 4.4818C53.6133 3.98867 53.3986 3.97078 53.0632 4.34175C53.4971 4.59199 53.9308 4.84342 54.3308 5.07586C54.8011 5.56425 53.9168 6.12641 54.9636 6.63408C55.1096 6.2163 55.2351 5.8526 55.3208 5.60782C56.1679 5.34564 56.8627 5.12956 57.5778 4.90821V4.90821ZM124.388 5.56563C124.546 5.88402 124.479 6.19374 125.145 5.94216C124.945 5.84259 124.741 5.74174 124.472 5.68035C124.387 5.5632 124.303 5.44611 124.169 5.25826L120.33 5.12992C120.032 4.95564 119.857 4.85455 119.635 4.72567C119.21 4.89125 118.785 5.05564 117.755 5.45697C120.534 5.54988 122.503 5.61571 124.388 5.56563ZM36.3288 7.18853C36.7811 7.1846 37.2248 7.18277 37.8278 7.17912C37.8 6.89483 37.7814 6.67751 37.7572 6.41239C36.9983 6.61323 36.4584 6.78806 36.5444 7.13502C35.9593 7.20475 35.3781 7.15555 35.8754 7.52459C36.054 7.42103 36.2326 7.31747 36.3288 7.18853V7.18853ZM9.17833 31.2904C9.38772 31.2533 9.74995 31.2392 9.77938 31.1747C9.88928 30.9355 9.55791 30.8852 9.19177 30.8872C9.24262 30.4817 8.46092 30.3746 8.14764 30.0403C7.71766 30.4069 7.26474 30.7299 6.95558 31.0899C6.84499 31.2207 7.07877 31.4428 7.1534 31.6156C7.63152 31.4839 8.02851 31.3746 8.42693 31.2653C8.50494 31.3798 8.54726 31.5741 8.66867 31.5924C9.11851 31.6634 9.19903 31.4875 9.17833 31.2904V31.2904ZM72.4842 4.23386C72.6401 4.5522 72.5752 4.86196 73.2411 4.61039C73.0391 4.51077 72.8372 4.40996 72.6488 4.46438C72.4929 4.14605 72.5578 3.83628 71.8919 4.08785C72.0924 4.18861 72.2958 4.28828 72.4842 4.23386ZM16.9994 23.8821L15.8421 23.8434C15.5622 23.9733 15.291 24.0988 15.0431 24.2131L13.5231 24.1623C12.9106 23.8049 13.794 23.7868 13.9348 23.526L13.9593 22.7922C13.4973 22.4398 13.2792 22.4361 12.2974 22.82C11.5898 22.4713 10.8907 22.1277 10.2381 21.807C10.2719 21.4819 10.2798 21.2048 11.0186 21.2616C11.1008 21.3787 11.1859 21.497 11.2915 21.6446L13.6102 21.7221C13.7792 21.648 14.134 21.5575 14.3127 21.4063C14.7973 20.9939 15.2082 20.5552 15.6191 20.157C15.2466 19.6183 14.1241 19.7427 13.5946 19.3499C13.4125 19.2153 12.6574 19.2984 12.2531 19.2848C11.9168 19.4236 11.6563 19.5304 11.4292 19.624C10.0439 19.2384 10.606 17.9654 8.49066 17.9446C8.24956 18.2009 7.99801 18.4687 7.74209 18.7387C7.07801 18.4629 7.45727 18.1101 7.34238 17.7241C7.10058 17.5708 6.78002 17.3683 6.3976 17.127C5.86516 17.0794 5.27406 17.0263 4.68155 16.972C4.12844 16.6832 4.53471 16.3384 4.39365 15.9622C4.81347 15.9001 5.24335 15.8371 5.78147 15.7574C6.68101 15.3006 7.65363 14.8044 8.62622 14.3095C9.20439 14.4062 9.54011 14.2401 9.9488 14.0811C10.2921 13.9461 10.8051 13.9323 11.2134 13.8698C11.2378 13.6968 11.2594 13.5665 11.2831 13.4161C11.8707 13.2715 12.4786 13.1239 13.1748 12.9543C13.5312 13.071 14.0013 13.2236 14.5551 13.4053C14.888 13.0664 15.1436 12.8046 15.4082 12.5325C15.6847 12.6787 15.9429 12.8147 16.2024 12.9532C16.5274 12.6354 16.8524 12.3153 17.2279 11.9481C17.093 11.859 16.8668 11.7121 16.583 11.5276C17.2071 11.2354 17.7731 10.7519 18.5045 10.6858C19.2591 10.617 19.6649 10.2413 21.3554 9.82869C21.9307 9.62409 21.5644 9.80472 21.3459 10.0296C21.1274 10.2532 20.4441 10.1637 20.3842 10.4558C20.998 10.8621 21.7267 10.7067 22.4226 10.674C22.7005 10.3475 22.8363 9.97702 23.3983 9.74102C23.198 9.67599 22.9963 9.61091 21.3554 9.82869C20.4346 9.80505 20.4502 9.33528 20.4659 8.86552C21.9914 8.70817 22.8165 8.03093 23.9375 7.56122L24.742 7.58811C25.0828 7.35425 25.6472 7.13143 25.7542 6.85045C25.9007 6.46245 26.5183 6.36643 26.8977 6.0517C27.3337 6.06627 27.8789 6.16189 28.2921 6.08165C29.1533 5.914 29.9458 5.65237 30.928 5.38518L32.3677 5.43332C32.7917 5.11651 33.257 4.76655 33.7709 4.38131C35.7215 3.9179 37.8081 3.42095 39.9381 2.91473C40.106 3.00249 40.3684 3.14223 40.6322 3.28201C41.8829 3.44527 42.1217 2.69604 43.0396 2.55171C43.8059 2.43089 44.5559 2.28333 45.405 2.13075C45.4705 1.97578 45.5483 1.79384 45.6356 1.58721C46.4335 1.16622 46.8858 1.59448 47.427 1.89475C49.1506 1.95238 50.9 2.01206 52.6511 2.06346C52.7429 2.06653 52.8388 1.98996 53.0659 1.89517L53.1072 0.654761C53.7831 0.360661 54.4291 0.534654 55.0187 0.544844C55.607 0.553798 56.2541 0.478996 56.8134 0.709623C56.5517 0.94018 56.3169 1.13473 56.1106 1.33856C56.0586 1.3904 56.0976 1.47029 56.0954 1.53689C56.9466 1.83919 56.9466 1.83918 57.9394 1.47115L60.0674 1.54229C60.3774 1.41574 60.6582 1.30131 60.9449 1.18469C61.2906 1.32245 61.6547 1.46797 61.904 1.56799C62.8295 1.62512 63.0351 1.22838 63.7065 1.02462C63.3422 0.930288 63.0773 0.865476 62.8184 0.793719C62.6108 0.734392 62.4092 0.66693 62.2061 0.6018C62.2593 0.555955 62.3081 0.470671 62.367 0.470258C63.7095 0.461568 65.0503 0.461157 66.3424 0.459114C66.6595 0.333989 66.9432 0.223222 67.3461 0.0640581C67.7389 0.210536 68.1288 0.356918 68.5882 0.528246C69.0275 0.485784 69.2421 -0.0106617 70.0468 0.266269C70.507 0.416189 70.5323 0.64801 70.2623 0.952109C69.3657 1.14953 68.3665 0.933972 67.4002 0.939763C66.5271 0.946291 65.6476 0.8895 64.5922 0.854214C64.5191 1.06727 64.4412 1.29444 64.3805 1.47696C65.0867 1.78155 65.7108 1.66431 66.3042 1.69248C66.4837 1.60323 66.6647 1.51404 66.8442 1.42598C67.8228 1.1813 68.5909 1.52248 69.4017 1.74842C69.5812 1.65917 69.7622 1.57117 69.9855 1.46076L75.4546 1.64362C76.0609 1.28409 76.7815 0.85695 77.6192 0.359906C77.8493 0.735492 77.9963 0.973769 78.1855 1.28489L81.2083 1.38595C81.6661 1.60485 81.9388 1.73659 82.3302 1.9247C82.7303 1.80711 83.1304 1.69071 83.6552 1.538L86.6722 1.63888C86.9313 1.78922 87.106 1.89031 87.2877 1.9952C87.8816 1.57692 89.0149 1.68506 89.7093 1.31062C89.9403 1.18618 90.6593 1.32095 91.1124 1.3361C91.3265 1.46112 91.4997 1.56216 91.6729 1.66201C92.6345 1.97157 93.4288 1.70048 94.2476 1.50998C94.4222 1.61225 94.5955 1.7121 94.8137 1.83965C95.0699 1.73392 95.329 1.62709 95.6362 1.50044L99.3659 1.62514C99.5929 1.74822 99.8594 1.89167 100.142 2.04278C100.887 2.21414 101.205 1.84735 101.667 1.69971L106.172 1.85031C106.363 1.96148 106.536 2.06133 106.825 2.22814C107.046 2.14861 107.286 2.06019 107.65 1.92713L109.231 1.97997C109.457 2.11137 109.631 2.21241 109.853 2.34129C110.108 2.23789 110.367 2.13107 110.629 2.02434C111.799 2.54326 111.799 2.54326 112.996 2.05944L114.413 2.10681C114.712 1.98106 114.975 1.87081 115.233 1.76275C115.444 1.8853 115.619 1.9852 115.861 2.12664L118.845 2.22641C119.132 2.13482 119.531 2.01004 120.07 1.83993C120.418 1.97778 120.799 2.12983 121.312 2.33152L122.564 2.37337C123.134 2.5472 123.346 3.01745 124.343 2.75312C124.421 2.63788 124.577 2.40972 124.731 2.18151C125.545 1.9325 126.42 2.2261 127.146 2.11345C127.513 2.3043 127.781 2.44423 128.164 2.64275C128.555 2.54509 128.969 2.44344 129.384 2.34065C129.366 2.32338 129.349 2.30616 129.333 2.28893C129.44 2.26631 129.544 2.22458 129.651 2.22456C130.027 2.22879 130.404 2.23902 130.776 2.261C131.137 2.28379 131.713 2.26615 131.818 2.36845C132.461 3.00669 134.115 2.47861 134.648 3.16315C135.277 3.08297 135.01 2.75499 135.221 2.55129C135.737 2.2816 136.395 2.51792 136.98 2.46722C137.255 2.3407 137.531 2.21538 137.79 2.09785L138.623 2.1257C138.765 2.35784 138.909 2.59721 139.055 2.83543C139.141 2.86095 139.231 2.88538 139.318 2.90971C139.502 2.68608 139.687 2.4625 139.904 2.20068L141.599 2.25734C141.815 2.38123 141.989 2.48232 142.216 2.61491C142.468 2.5126 142.725 2.40929 143.04 2.28169L145.284 2.35673C145.575 2.51888 145.925 2.71272 146.27 2.90405C146.379 3.27437 146.484 3.63746 146.616 4.08357C147.29 3.66084 148.296 3.51349 147.822 2.8702L151.828 3.00416C152.147 2.88027 152.43 2.77069 152.816 2.62166L155.038 2.69597C155.209 2.78026 155.48 2.91553 155.787 3.06745C156.029 2.96243 156.292 2.84862 156.584 2.72501L157.987 2.77194C158.4 2.6155 158.775 2.47445 159.212 2.31044C159.685 2.52035 160.053 2.68385 160.383 2.82941L172.354 3.22965C172.686 3.09073 172.966 2.97392 173.21 2.87132C174.253 2.87883 174.804 3.65091 176.162 3.31175C176.261 3.27219 176.544 3.15662 176.893 3.01352L180.577 3.13669C180.808 3.25872 181.808 3.5386 182.094 3.57198C182.365 3.44889 182.641 3.32475 182.903 3.20613C183.161 3.34097 183.418 3.47456 183.673 3.60692C183.878 3.5066 184.059 3.41741 184.323 3.28694L185.993 3.3428C186.182 3.45269 186.355 3.55373 186.595 3.69151C186.841 3.59495 187.095 3.49512 187.395 3.37774C187.625 3.49259 187.879 3.62134 188.168 3.76555L191.862 3.88905C192.137 4.03874 192.402 4.18333 192.675 4.33053L194.14 4.37953C194.412 4.52317 194.671 4.65801 194.91 4.78271C195.216 4.65363 195.496 4.53559 195.893 4.36672C196.279 4.4975 196.68 4.63232 197.341 4.85565L199.385 4.92397C199.542 4.85898 199.826 4.74464 200.133 4.62156C201.675 4.65645 202.061 4.74556 204.07 5.57234C204.515 5.28598 204.98 4.98603 205.49 4.65782C206.553 4.98981 207.472 5.27653 208.456 5.58323C209.143 5.40145 209.95 5.18911 210.899 4.93985L212.189 4.983C212.462 5.12545 212.718 5.26143 212.974 5.39498C213.177 5.29461 213.358 5.2066 213.625 5.07504L215.946 5.15266C216.045 5.19765 216.324 5.32364 216.717 5.50227L218.938 5.57654C219.094 5.51388 219.375 5.39945 219.734 5.25669L221.221 5.3064C221.654 5.40423 221.847 5.89645 222.922 5.62638C222.948 5.61535 223.222 5.48997 223.496 5.36341C223.666 5.46316 223.84 5.56302 224.123 5.72726C226.086 5.94412 228.2 5.85167 230.286 6.0131C230.461 6.11418 230.634 6.21641 230.914 6.37818C231.139 6.29522 231.382 6.20571 231.741 6.07365L234.137 6.15376C234.362 6.38274 234.723 6.7496 234.909 6.94036L236.832 7.00466C237.362 7.12834 237.469 7.50218 238.097 7.46129L238.078 8.05592C237.825 8.19391 237.581 8.32623 237.35 8.45186C237.604 8.61752 237.838 8.77299 238.055 8.91476C238.017 9.06589 237.984 9.19218 237.952 9.31852C236.908 9.94438 236.578 8.91181 235.778 8.99699C235.036 8.98767 234.825 9.37113 234.307 9.53003C234.682 9.92592 235.363 9.74389 235.907 9.80854C236.505 9.88091 236.733 10.2481 237.451 10.3019C237.933 10.337 238.355 10.7095 238.698 10.8793L238.667 11.8082C238.316 11.8452 237.979 11.8804 237.665 11.9139C237.354 11.7464 237.091 11.603 236.826 11.4608C236.468 11.637 236.108 11.8154 235.741 11.9961C236.097 12.4008 236.812 12.1664 237.309 12.289C237.835 12.4185 238.297 12.6268 238.789 12.8016C239.182 12.6433 239.464 12.5301 239.753 12.4147C240.097 12.5489 240.463 12.6921 240.954 12.8835C241.348 12.7383 241.726 12.5998 242.102 12.4611C242.334 12.5867 242.599 12.7301 243.001 12.9496C243.454 12.8254 243.938 12.694 244.332 12.5869C244.76 12.7441 245.15 12.8869 245.766 13.1134C246.182 12.7178 246.552 12.367 246.925 12.014C247.58 12.3609 247.838 12.4969 248.11 12.6406C248.667 12.7318 249.335 12.541 249.884 12.8559C249.38 13.3986 247.921 12.7081 247.499 13.3273C246.437 13.3561 245.827 13.7679 245.115 14.1085C244.536 14.1248 243.944 14.1431 243.374 14.1598C243.193 14.4121 243.03 14.64 242.827 14.9213C242.396 14.4093 242.089 13.9287 241.249 13.6387C240.892 13.8149 240.531 13.9921 240.171 14.1705C241.01 14.4962 240.66 15.162 242.052 15.53C240.877 15.5907 240.188 15.6272 239.445 15.6655C239.643 16.1781 240.611 16.3379 240.921 16.8042L244.115 16.911C244.417 17.0854 244.591 17.1865 244.829 17.3242C245.171 17.2225 245.532 17.1144 246.052 16.9591C246.377 17.0831 246.763 17.2305 247.208 17.4002C247.398 17.3196 247.662 17.207 247.927 17.0944C248.357 17.3862 249.191 17.5569 249.022 18.1049C248.573 18.2078 248.07 18.3255 247.574 18.4411C247.55 18.576 247.527 18.7062 247.5 18.8768C247.02 18.9821 246.502 19.0958 245.799 19.2521C247.592 19.7037 249.37 19.3703 250.994 19.6662C251.178 19.7724 251.352 19.8735 251.552 19.9897C252.364 20.0407 253.205 20.0926 253.977 20.141C254.395 20.5134 254.178 20.8323 254.134 21.2321C253.471 21.2647 252.78 21.2975 252.14 21.3285C251.512 21.8493 252.39 22.0643 252.807 22.3629C252.901 22.4065 252.991 22.4845 253.085 22.4876C254.832 22.5544 256.579 22.6104 258.264 22.6667C258.577 22.5331 258.841 22.4217 259.1 22.3125C259.307 22.4325 259.481 22.5336 259.655 22.6346C260.488 22.4934 261.265 22.1682 262.232 22.4827C262.881 22.9914 261.987 23.152 261.577 23.4359C261.162 23.7232 260.832 24.0468 260.457 24.3605L259.004 24.3119C258.704 24.4447 258.429 24.5677 258.035 24.7426C257.656 24.624 257.248 24.4972 256.721 24.3332C256.199 24.4538 255.525 24.6087 254.822 24.7709C255.616 25.1927 256.535 24.9556 257.722 25.1036C258.234 25.4517 258.939 25.9301 259.704 26.4522C260.244 26.3261 260.662 26.2294 261.246 26.093C261.435 26.1647 261.786 26.2968 262.29 26.485C262.622 26.3854 263.019 26.2653 263.482 26.1248C263.661 26.2154 263.917 26.343 264.186 26.4794C264.749 26.5125 265.341 26.5466 266.037 26.5865C265.589 27.0394 265.235 27.3943 264.905 27.7285C264.587 27.7298 264.344 27.7312 264.097 27.7313C263.496 27.9743 263.874 28.3477 263.74 28.6575C264.619 29.1739 265.219 29.8571 267.139 29.9332C266.115 30.1883 265.951 30.6126 265.185 30.5668C265.276 30.3364 265.013 30.1848 264.665 30.1553C263.966 30.0998 263.256 30.0986 262.773 30.0825C262.218 29.8949 261.834 29.7642 261.492 29.692C261.377 29.431 261.444 29.1225 260.776 29.3728C260.978 29.4736 261.18 29.5732 261.492 29.692C261.495 30.0267 260.988 29.999 260.484 30.0155C260.287 30.0232 260.112 30.1423 259.877 30.2273C259.946 30.3987 260.021 30.581 260.076 30.7174C260.917 30.9693 261.316 30.7089 261.737 30.4812C262.248 30.6198 262.503 31.0355 263.271 30.9016C263.527 30.7828 263.799 30.6561 264.07 30.5295L265.185 30.5668L265.152 31.5717C265.642 31.8655 266.132 31.9271 266.612 31.6146C266.39 31.4655 266.174 31.3189 265.955 31.1735C266.77 30.821 267.682 31.2074 268.439 31.0291C268.92 31.4465 269.701 31.4857 270.342 31.6988C270.073 32.4244 271.194 32.9286 271.336 33.637C271.802 33.4525 272.056 33.3527 272.312 33.2529C272.996 33.7639 272.195 34.33 272.952 34.8828C273.105 34.7069 273.217 34.5726 273.338 34.4385C273.438 34.3299 273.549 34.2241 273.693 34.0753C274.288 34.7441 274.861 35.3848 275.424 36.0179C275.198 36.1306 275.019 36.2187 274.813 36.3189C275.039 36.467 275.265 36.6139 275.51 36.7721L275.484 37.5605C275.238 37.6916 274.981 37.8283 274.735 37.9606L274.709 38.749C274.968 38.9137 275.211 39.0682 275.438 39.214C275.414 39.3584 275.389 39.4873 275.358 39.6553C274.951 39.7191 274.514 39.7867 274.078 39.8566C273.919 40.0835 273.762 40.3116 273.612 40.5316L272.751 40.5028C272.147 40.8112 271.533 41.1276 270.885 41.4607C270.87 41.5591 270.853 41.6895 270.827 41.8577C269.758 41.9589 269.114 42.4743 268.206 42.6963C267.41 42.8935 266.595 43.1556 265.688 43.2146C265.446 43.4982 265.209 43.7748 264.829 44.2193C265.028 44.3236 265.419 44.5283 265.807 44.733C266.111 44.5824 266.29 44.4943 266.483 44.3996C267.258 44.4481 266.883 44.7547 266.955 44.963C266.2 45.3367 265.292 45.0229 264.468 45.0728C263.858 44.9488 263.551 44.3147 262.626 44.7171C262.474 44.9668 263.535 45.4988 265.373 46.0853C266.381 46.4059 267.4 46.7174 268.406 47.0308C268.261 47.351 268.643 47.7209 268.034 47.9947C267.785 47.8697 267.534 47.7434 267.28 47.6182C266.846 47.6763 266.717 48.0411 265.529 48.1288C265.21 48.1848 265.446 47.976 265.743 47.9573C266.594 47.9025 265.957 47.7323 265.881 47.6024C265.187 47.5649 264.457 47.2905 263.894 47.6943C264.24 47.8952 264.585 48.096 265.529 48.1288C266.195 48.0713 266.24 48.2704 266.372 48.2915C266.946 48.3833 267.544 48.4248 268.354 48.5054C268.044 48.7343 267.81 48.9051 267.583 49.0725C267.259 49.5486 268.855 49.8009 268.077 50.3725C267.831 50.3869 267.488 50.4064 267.132 50.4266C266.887 50.1339 266.662 49.8645 266.37 49.513C266.143 49.8257 265.976 50.0534 265.781 50.322L263.494 50.2455C263.135 50.1156 262.652 49.9387 262.035 49.7133C261.22 50.2016 260.495 50.6381 260.003 50.9348C258.989 50.9914 258.346 50.8163 257.799 51.0254C258.084 51.6695 259.33 51.6171 259.954 51.9868C259.949 52.12 259.945 52.2544 259.939 52.3887C259.759 52.478 259.578 52.5672 259.313 52.6976C259.498 52.9372 259.685 53.2053 259.909 53.464C260.095 53.6762 260.328 53.8769 260.601 54.1432C260.172 54.167 259.83 54.1853 259.414 54.2095C259.296 54.0067 259.19 53.8281 259.023 53.5451C257.923 53.3857 256.99 52.5247 255.37 53.0158C255.902 53.4503 256.638 53.6511 257.448 53.8402C258.31 54.0404 258.136 54.6501 258.745 54.9657L260.214 55.0149C260.506 54.8901 260.769 54.7763 261.132 54.6217C261.239 54.8563 261.323 55.0401 261.412 55.2311C260.746 55.3946 260.128 55.5442 259.219 55.7662L255.716 55.6491C255.545 55.5648 255.271 55.4294 254.998 55.2941C254.505 55.5443 253.821 55.6083 253.184 55.7251C253.09 55.9042 252.994 56.0819 252.871 56.3171C252.575 56.3394 252.231 56.3648 251.825 56.3953C251.428 56.5915 250.977 56.8146 250.392 57.1034L246.632 56.9777C246.318 57.1327 246.137 57.2219 245.826 57.3758L233.041 56.9483C232.728 57.1022 232.549 57.1902 232.234 57.3464L229.227 57.2458C228.911 57.402 228.732 57.49 228.551 57.5792C228.195 57.4161 227.84 57.253 227.415 57.0591C226.934 57.237 226.558 57.3768 226.147 57.5286L217.213 57.2299C217.004 57.3336 216.825 57.4217 216.559 57.5533L211.129 57.3717C210.941 57.2631 210.768 57.1621 210.529 57.0231C210.283 57.1196 210.03 57.2183 209.7 57.3478L204.558 57.1759C204.26 57.304 203.984 57.4234 203.688 57.5528C203.443 57.4207 203.182 57.2834 202.921 57.1426L201.447 57.0933C201.159 57.2242 200.885 57.3507 200.495 57.527C200.115 57.4143 199.703 57.291 199.096 57.1087C199.016 57.1394 198.77 57.23 198.416 57.361L194.078 57.216C193.768 57.3414 193.486 57.4557 193.155 57.5888C192.93 57.4752 192.675 57.3489 192.383 57.2034L190.908 57.154C190.664 57.2661 190.388 57.3927 190.11 57.5203L181.1 57.219C180.921 57.3083 180.74 57.3975 180.56 57.4855C180.464 57.5228 180.367 57.5934 180.273 57.5902C177.773 57.5126 175.275 57.4279 172.816 57.3457C172.594 57.4561 172.413 57.5453 172.12 57.6903C171.905 57.5938 171.673 57.4908 171.339 57.3427C171.129 57.4226 170.878 57.519 170.434 57.6899L156.971 57.2397C156.659 57.3936 156.479 57.4829 156.275 57.5844C156.019 57.4496 155.762 57.316 155.489 57.1735L152.509 57.0739C152.239 57.1982 151.962 57.3235 151.677 57.4544L150.241 57.4064C149.943 57.5334 149.681 57.6425 149.421 57.7529C149.21 57.6303 149.037 57.5293 148.792 57.3889L147.147 57.334C146.915 57.4476 146.734 57.5368 146.42 57.6918L140.405 57.4907C140.091 57.6457 139.91 57.7349 139.7 57.8386L131.485 57.5639C131.195 57.6924 130.919 57.8153 130.642 57.9406C130.387 57.8046 130.12 57.6648 129.871 57.5314L126.121 57.406C125.93 57.5008 125.749 57.59 125.379 57.7729C123.478 57.7248 121.38 57.6345 119.344 57.5807C119.106 57.6989 118.926 57.7882 118.652 57.923C118.424 57.819 118.182 57.7085 117.847 57.5556L115.617 57.4811C115.441 57.5538 115.162 57.6706 114.844 57.8017C114.61 57.6808 114.355 57.5496 114.072 57.4056L112.603 57.3565C112.34 57.4775 112.062 57.6027 111.777 57.7313L103.537 57.4558C103.348 57.5495 103.167 57.6387 102.988 57.7279C102.889 57.7604 102.789 57.8249 102.692 57.8216C100.196 57.7441 97.6985 57.6594 95.2593 57.5779C95.02 57.6961 94.8404 57.7853 94.5266 57.9403L87.7597 57.7141C87.4459 57.8691 87.2649 57.9583 87.0183 58.0798C86.778 57.9658 86.5307 57.8504 86.2396 57.7121C86.0022 57.8125 85.7401 57.924 85.4693 58.0375C85.2238 57.9091 84.9642 57.7718 84.706 57.6358C84.5251 57.725 84.3455 57.8142 84.0215 57.9725C83.3268 57.9695 82.4829 57.9651 81.6389 57.9607C81.4594 58.0487 81.2784 58.1379 80.966 58.293L73.4449 58.0415C73.1325 58.1966 72.9516 58.2858 72.7078 58.405L68.4117 58.2614C67.9099 58.4136 67.5152 58.5398 67.1024 58.6498C67.0068 58.6763 66.8571 58.6463 66.6836 58.6405C66.4408 58.5157 66.1712 58.3769 65.8862 58.2293C65.6311 58.3446 65.3644 58.4643 65.0861 58.5883L60.6121 58.4387C60.3264 58.5697 60.0494 58.6961 59.634 58.8858C59.194 58.7342 58.7199 58.5719 58.2473 58.4097C58.0678 58.4977 57.8868 58.5869 57.573 58.7419L53.0589 58.591C52.745 58.7472 52.5655 58.8364 52.3904 58.9222L48.4513 58.7905C48.1893 58.6389 48.0161 58.5379 47.8218 58.4254L43.3478 58.2758C42.8121 57.9805 42.2864 57.6879 41.7268 57.3787C41.2522 57.3628 40.5773 57.4534 40.2935 57.3117C38.9476 56.6452 36.8354 56.5758 35.9501 55.5711C35.6076 55.7251 35.3409 55.8448 35.0728 55.9644C34.9066 55.8684 34.732 55.7673 34.4278 55.5905L32.1722 55.515C31.6947 55.2383 31.3469 55.0362 30.9892 54.829L31.0177 53.9739C30.6114 53.8865 30.1824 53.7936 29.6479 53.6793C29.5943 53.5215 29.5302 53.336 29.4594 53.1324C28.8897 52.9539 28.2745 52.763 27.4192 52.4963L26.2261 52.4564C25.9498 52.3067 25.6847 52.1621 25.4111 52.0137L23.9227 51.9639C23.748 51.8628 23.5748 51.7618 23.2706 51.5861L20.9906 51.5099C20.212 51.0088 20.7202 50.5365 20.5896 50.0618C20.3759 49.9261 20.1356 49.7716 19.8755 49.6057C19.7262 49.3067 20.1366 48.9644 19.6514 48.6636C19.1414 48.9764 19.1414 48.9764 19.0682 50.0955C18.6686 50.1119 18.2387 50.1297 17.9225 50.1429C17.121 49.5958 17.9777 49.3911 18.3689 49.153C17.7605 48.7588 17.0623 49.0331 16.1341 48.7115C15.3727 48.3408 14.9757 47.5894 14.4568 46.8791C14.1014 46.8172 13.7645 46.7583 13.3207 46.6804C13.2657 46.5214 13.2016 46.3347 13.1244 46.1107C12.4015 45.6591 11.8947 46.0076 11.359 46.2731C10.7657 46.2413 10.1415 46.3622 9.54864 46.103C9.49407 45.8024 9.43725 45.4826 9.38028 45.1675C8.85895 44.8298 8.16078 45.103 7.36314 44.8286C6.98718 44.6089 6.38168 44.2553 5.75785 43.8915L5.78541 43.065C6.38767 42.7839 7.03361 42.4841 7.69422 42.1752C8.08793 42.2502 8.18877 42.6275 8.76078 42.5216C8.87554 42.7826 8.81065 43.0923 9.47653 42.8408C9.2746 42.74 9.07412 42.6392 8.76078 42.5216C8.80864 42.3779 8.81534 42.1769 8.822 41.9771C8.62781 41.9028 8.44663 41.7824 8.23771 41.7623C7.76693 41.7168 7.28157 41.7208 6.93312 41.7092C6.2969 41.3296 6.81518 40.9838 6.48879 40.655C4.70291 40.3119 3.76713 39.4877 2.95547 38.3426L3.00325 36.9095C2.46935 36.6904 1.86324 36.4416 1.48222 36.2871L1.51609 35.2715C1.6956 35.1835 1.8751 35.0954 2.05608 35.0062C2.5652 34.591 2.10769 34.1043 2.41712 33.6503C1.88276 33.5312 1.44956 33.4346 0.910892 33.3154C1.10787 33.1338 1.29737 32.9616 1.48547 32.7881C1.30944 32.6858 1.13623 32.5847 0.962985 32.4849C1.27773 31.9144 2.43502 31.9936 3.12957 31.7001L3.14281 31.3029C2.44934 30.832 1.90768 31.1044 1.30013 31.4151C0.971492 31.2398 0.642846 31.0645 0.27194 30.8652C0.622449 30.5138 0.970173 30.1599 1.29698 29.8303C2.11005 29.6849 2.36435 30.1089 2.87829 30.238C3.24025 30.0596 3.59936 29.8811 3.95551 29.7049C4.24459 29.3014 3.55317 29.114 3.23634 28.8427C3.03024 28.2214 5.01317 27.9937 3.95588 27.3261C4.20545 27.2035 4.35487 27.1132 4.37754 27.1223C4.85527 27.3038 5.17227 27.6561 5.99203 27.5251C6.14156 27.7766 6.28005 28.0146 6.45117 28.3072C6.74438 28.3397 7.0848 28.3772 7.48814 28.4217C7.66149 28.1739 7.82273 27.9447 7.98103 27.7179C8.814 27.7076 9.00676 27.7391 9.78273 28.0174C9.96224 27.9293 10.1418 27.8401 10.4556 27.6851C11.1741 28.2675 11.8758 28.8339 12.5887 29.4113C13.4003 29.0075 12.8919 28.4988 13.0499 28.0635C13.4963 27.551 14.502 27.4835 15.3203 27.2656C15.0799 27.1135 14.8381 26.9625 14.6272 26.828C14.3995 26.4228 14.9895 26.2532 15.3337 26.0468C15.0896 25.8756 14.8891 25.7331 14.5833 25.5193C15.0712 25.4809 15.4123 25.4554 15.7822 25.426C16.0263 25.7271 16.251 26.0049 16.4854 26.2937C16.8926 26.093 17.2517 25.9157 17.6283 25.7295L17.6681 24.5342C17.5108 24.3004 16.8304 24.2134 16.9994 23.8821C17.0725 23.8845 17.2364 23.9186 17.302 23.8898C17.7363 23.696 18.148 23.4895 18.5754 23.2847C18.4366 23.0574 18.3317 22.8872 18.2159 22.7012C17.8206 22.7154 17.4929 22.727 17.0847 22.7419C17.0712 23.1463 17.0589 23.5162 16.9994 23.8821" fill="#EBBF69" fill-opacity="0.2"/>
</svg>
